<?xml version="1.0" encoding="utf-8"?>
<!-- Generator: Adobe Illustrator 23.0.4, SVG Export Plug-In . SVG Version: 6.00 Build 0)  -->
<svg version="1.1" id="Layer_1" xmlns="http://www.w3.org/2000/svg" xmlns:xlink="http://www.w3.org/1999/xlink" x="0px" y="0px"
	 viewBox="0 0 2500 2000" style="enable-background:new 0 0 2500 2000;" xml:space="preserve">
<style type="text/css">
	.st0{fill:#E4EFF9;}
	.st1{clip-path:url(#SVGID_2_);}
	.st2{opacity:8.000000e-02;fill:#E4EFF9;enable-background:new    ;}
	.st3{fill:#E4EFF9;fill-opacity:0.25;}
	.st4{fill:#B3CBE4;fill-opacity:0.2;}
	.st5{opacity:0.3;fill:#D6D6D6;}
	.st6{fill:none;stroke:#91C1E5;stroke-width:30;stroke-miterlimit:10;}
	.st7{fill:#F4C70C;}
	.st8{fill:#145DA5;}
	.st9{fill:#D6D6D6;}
	.st10{fill:#0D4175;}
	.st11{fill:#FFFFFF;}
	.st12{fill:#9CC8FD;stroke:#B3CBE4;stroke-miterlimit:10;}
	.st13{fill:#91C1E5;stroke:#91C1E5;stroke-miterlimit:10;}
	.st14{fill:#F8A124;}
	.st15{fill:#9CC8FD;}
	.st16{fill:#102336;}
	.st17{fill:#F29587;}
	.st18{fill:#5AA5FC;}
	.st19{opacity:0.25;fill:#5D88BB;}
	.st20{fill:#EF806F;}
	.st21{opacity:0.4;fill:#E07569;}
	.st22{opacity:0.4;fill:#EF806F;}
	.st23{opacity:0.4;fill:#B3CBE4;}
	.st24{fill:#0D4175;stroke:#B3CBE4;stroke-miterlimit:10;}
</style>
<g>
	<g>
		<path id="SVGID_5_" class="st0" d="M2318.7,1339.4c108.6-157.5,70.8-322.1-226.6-467.5s-418.2-416.7-506.8-531.2
			c-88.5-114.5-303.7-160.4-594.7,43S152.5,1022.5,288.4,1349s583.7,318.9,908.3,266.4c319-51.5,478.8-132.6,652.8-124
			C2023.5,1500.1,2246,1444.8,2318.7,1339.4L2318.7,1339.4z"/>
	</g>
	<g>
		<defs>
			<path id="SVGID_1_" d="M2318.7,1339.4c108.6-157.5,70.8-322.1-226.6-467.5s-418.2-416.7-506.8-531.2
				c-88.5-114.5-303.7-160.4-594.7,43S152.5,1022.5,288.4,1349s583.7,318.9,908.3,266.4c319-51.5,478.8-132.6,652.8-124
				C2023.5,1500.1,2246,1444.8,2318.7,1339.4L2318.7,1339.4z"/>
		</defs>
		<clipPath id="SVGID_2_">
			<use xlink:href="#SVGID_1_"  style="overflow:visible;"/>
		</clipPath>
		<g class="st1">
			<path class="st2" d="M1113.5,534.7c27.6-29.9,67.9-48.6,112.5-48.6h1271.6c41.7,0,79.5,16.4,106.8,42.8
				c27.3,26.4,44.3,62.9,44.3,103.2v986.8H1074.7V632.1C1074.9,594.7,1089.5,560.6,1113.5,534.7L1113.5,534.7z"/>
			<path class="st3" d="M1109,533.8c27.3-29.5,67.1-48.1,111.3-48.1h64.9l66.2,65.2h-225.3L1109,533.8z M1487.8,685.2l371.8,366.5
				v234.8l-371.8-372.9V685.2z M2422,1605.8h-244.1l-293.2-294v-235.3L2422,1605.8L2422,1605.8z M1368.8,568.1l96.6,95.3v227.9
				l-322.2-323.2L1368.8,568.1L1368.8,568.1z M1932,1605.8h-263l-181.2-211.5v-261.5L1932,1605.8L1932,1605.8z M1070.9,689
				l394.5,420.2v259.3L1070.9,908V689L1070.9,689z M1087.4,1388.9l192.2,216.9h-192.2V1388.9z"/>
			<path class="st0" d="M2634.3,544.9H1098.7v10.5h1535.6V544.9z"/>
			<path class="st0" d="M1471,479.4h-10.9V1619h10.9V479.4z M1861.7,486.1h-10.9V1619h10.9V486.1L1861.7,486.1z M2252.4,486.1h-10.9
				V1619h10.9V486.1L2252.4,486.1z"/>
		</g>
	</g>
</g>
<polygon class="st4" points="2251.8,1337.3 797.5,982.7 797.5,228.7 2251.8,583.3 "/>
<g>
	<ellipse class="st5" cx="1302.8" cy="1562.9" rx="918.1" ry="45.4"/>
</g>
<g>
	<ellipse class="st5" cx="1546.9" cy="1826.8" rx="453" ry="65.1"/>
</g>
<g>
	<polyline class="st6" points="1001.3,1283.4 1001.3,706.2 923.4,706.2 923.4,571.8 803.8,571.8 803.8,717.1 763.3,757.6 	"/>
	<polyline class="st6" points="1001.3,873.3 1106.3,873.3 1106.3,729 	"/>
	<polyline class="st6" points="1001.3,1053.2 1320.7,1053.2 1320.7,916.8 	"/>
	<circle class="st7" cx="750.8" cy="778" r="27.5"/>
	<path class="st8" d="M1185.7,809.2h-175.9c-20.7,0-37.5-16.8-37.5-37.5V649.8c0-20.7,16.8-37.5,37.5-37.5h175.9
		c20.7,0,37.5,16.8,37.5,37.5v121.9C1223.2,792.4,1206.4,809.2,1185.7,809.2z"/>
	<path class="st9" d="M601.2,859.4l21.7,148.3l119.6,275.7c0,0,27.7,34.6,35.6,37.6s403.2-45.5,403.2-45.5s2,32.6-34.6,62.3
		c-36.6,29.7-251,102.8-251,102.8h163.1c0,0,5.9-35.6,32.6-35.6c26.7,0,191.7,0,191.7,0s26.7-5.9,38.5,26.7
		c11.9,32.6,18.8,86,18.8,86s3,23.7-19.8,23.7s-535.7,0-535.7,0l-8.9-167c0,0-50.4-1-97.8-137.4c-47.4-136.4-86-175.9-86-175.9
		s-18.8-18.8,10.9-41.5c0,0-12.7,6.9-16.7-46.5c-4-53.4-10.9-113.7-10.9-113.7S582.4,837.7,601.2,859.4z"/>
	<path class="st10" d="M619,849.8c0,0-25.7-5.2-18.8,41.3S609,984,609,984s3.1,17.8,25.8,16.8c22.7-1,21.7-28.7,20.8-36.6
		s-11.9-98.8-11.9-98.8S636.8,840.1,619,849.8z"/>
	<path class="st10" d="M623,1007.7c0,0,97.8,264.9,107.7,274.8c9.9,9.9,52.4,14.8,45.5-17.8c-6.9-32.6-90.9-232.3-90.9-232.3
		S671.4,995.8,623,1007.7z"/>
	<path class="st10" d="M801.6,1295c0,0-11.5,6.6-13.5,25.7c-2,19.1-0.1,37.9,37.5,29.9c37.6-7.9,352.2-54.9,352.2-54.9l232.9,94.5
		c0,0,34.6,15.8,42.5,5.9c7.9-9.9,9.9-20.8-39.5-46.5c-38.8-20.2-156.9-78.2-205.8-102.1c-14-6.9-29.8-9.4-45.3-7.2L801.6,1295z"/>
	<rect x="1172.8" y="894.3" class="st10" width="163.9" height="48.5"/>
	<path class="st11" d="M1199.9,795.3H1011c-12.8,0-23.2-10.4-23.2-23.2V635.5c0-12.8,10.4-23.2,23.2-23.2h188.9
		c12.8,0,23.2,10.4,23.2,23.2v136.5C1223.2,784.9,1212.8,795.3,1199.9,795.3z"/>
	<path class="st12" d="M1097.7,661.7c0,0-35.7-15.6-43.9,12.8c-8.3,28.4,7.3,40.3,7.3,40.3s-9.7,37.5,13.5,52.2
		c0,0-0.6-57.1,23.2-56.3c0,0,28.1,14.2,18.3,56.3c0,0,20.1-18.9,13.7-54.8c0,0,30.3-13.5,11.9-44.1
		C1127.9,645.3,1097.7,661.7,1097.7,661.7z"/>
	<path class="st13" d="M686,735l123.9,88.3c0,0,40.3-33.7-29.2-83.1C711.2,690.9,686,735,686,735z"/>
	<path class="st9" d="M841.4,1362.5c0,0-7.9-138.4,41.5-159.1c49.4-20.8,177.9-43.5,177.9-43.5s14.8-5.9,17.8,5.9s0,15.8,0,15.8
		s-143.3,24.7-167,37.6c-23.7,12.8-46.5,61.3-38.5,143.3H841.4z"/>
</g>
<g>
	<path class="st11" d="M2137.5,1543.8c24.3-21.2,28.6-56.8,11.6-83l-95.4,83.5C2077.5,1564.6,2113.2,1565,2137.5,1543.8z"/>
	<path class="st11" d="M2053.1,1447.4c-24.3,21.2-28.6,56.8-11.6,83l95.4-83.5C2113.2,1426.5,2077.4,1426.1,2053.1,1447.4z"/>
	<path class="st9" d="M2136.9,1446.9l-95.4,83.5c1.7,2.5,3.5,5,5.6,7.4c2.1,2.3,4.3,4.5,6.6,6.5l95.4-83.5c-1.7-2.5-3.5-5-5.6-7.4
		C2141.4,1451,2139.3,1448.9,2136.9,1446.9z"/>
</g>
<g>
	<path class="st14" d="M373.6,1260.8c17.5-15.5,44.3-13.9,59.8,3.6c15.5,17.5,13.9,44.3-3.6,59.8l-45.2,40.1l-56.2-63.4
		L373.6,1260.8z"/>
	<path class="st7" d="M279.6,1400.9c-15.5-17.5-13.9-44.3,3.6-59.8l45.2-40.1l56.2,63.4l-45.2,40.1
		C321.9,1420,295.2,1418.4,279.6,1400.9z"/>
</g>
<g>
	<rect x="1942.6" y="1052.6" class="st15" width="77.1" height="273"/>
	
		<rect x="1942.6" y="1052.6" transform="matrix(-1.836970e-16 1 -1 -1.836970e-16 3170.3254 -792.071)" class="st15" width="77.1" height="273"/>
</g>
<g>
	<path class="st16" d="M1387.5,1753c0,0-6,42-7.3,48s-13.3,27.3,12.7,48.7s72.7,5.3,72.7,5.3s18-0.7,18.7-25.3s-12.2-39.2-11.1-62.6
		s-19.6-46.8-19.6-46.8L1387.5,1753z"/>
	<path class="st16" d="M1568.1,1779.7c0,0-11.3,26.7-8,51.3c3.3,24.7-0.6,11.3-0.6,11.3s41.3,6.7,91.9,7.3c50.7,0.7,80,6.7,102-7.3
		s-24-44.7-52.7-46c-28.7-1.3-47.3-30-47.3-30l-43.3-4.7L1568.1,1779.7z"/>
	<path class="st16" d="M1457.5,335.7c0,0,4.7-50.7,4-58c-0.7-7.3,12.7-15.3,12.7-15.3s-18-15.3-8.3-34c9.7-18.7,33.7-56,45.7-55.3
		s35.3,7.3,53.3,10s28-1.3,36.7,16.7c8.7,18,18,28,24.7,44s22,60.7,10.7,92c-11.3,31.3-19.3,38-19.3,38l-126.7-3.3l-24.7-8.7
		L1457.5,335.7z"/>
	<path class="st17" d="M1496.8,250.4c0,0-14.7,10-15.3,17.3c-0.7,7.3,10.7,11.3,10.7,11.3s-22,2.7-22,19.3c0,16.7,2.7,56,2.7,56
		s-12-20-12-32.7c0,0-11.3,5.3-10,24.7c1.3,19.3,6.6,26.7,22.9,26c0,0,4.4,36,28.4,54.7v33.3l-4,80l76,39.3l47.3-96.7l-21.3-16.7
		l-6.7-40c0,0,23.3-16,25.3-34.7s2.7-22,2.7-22s14.7,8.7,22.7-10.7c8-19.3-2-38-10-36.7c0,0-7.3,33.3-10.7,37.3l2-58.7
		c0,0-0.7-18-18.7-19.3c0,0,10.7-6,10.7-8.7c0-2.7-4.7-14.7-18-12c-13.3,2.7-55,1.3-63.2-2C1528.1,255.7,1496.8,250.4,1496.8,250.4z
		"/>
	<path class="st18" d="M1502.1,457c0,0,16,58,66,91.3c0,0,33.3-22,32-82l136,65.3c0,0,23.3,62.7,35.3,120s14,86,14,86l-65.3,9.3
		c0,0,12.7,178.7,15.3,298c0,0-16,8-36.7,10.7c0,0,5.3,88-6.7,140s-7.3,117.3-28.7,192c0,0-6.7,60-7.3,81.3
		c-0.7,21.3-6.7,247.3-2.7,297.3c0,0-25.3,28.7-89.3,17.3c0,0-20-108-18.7-172.7c1.3-64.7-5.3-138,14.7-214c0,0,7.3-152,10-161.3
		s8.7-90,8.7-90s-11.3,63.3-22.7,111.3s-19.3,117.3-30.7,134.7c-11.3,17.3-24.7,66.7-27.3,94.7s-22,190-22,203.3s-3.3,82.7-3.3,82.7
		s-20.7-20-46.7-20s-46,22-46,22s0-70,0-103.3c0-33.3,0-116,9.3-170c9.3-54,28.7-134.7,28.7-142.7s23.3-309.3,23.3-309.3
		s-19.3-4-19.3-8s5.3-222.7,5.3-222.7l-18-28.7l-21.3,9.3c0,0-30-57.3-39.3-129.3c-9.3-72-13.3-110,14-131.3
		C1390.1,517,1502.1,457,1502.1,457z"/>
	<g>
		<path class="st19" d="M1441.5,1049c0,0,86.2,29.5,257.3,6.7v13.8c0,0-107.7,65-232.5,39.6c0,0-45.1,206.2-45,203.9
			C1421.5,1310.8,1441.5,1049,1441.5,1049z"/>
	</g>
	<g>
		<path class="st19" d="M1461.5,715.7c0,0-32.7-103.6-32.7-109.4c0,0,19.8,14,32.7,42.1c12.9,28,2.4,59.6,46.8,59.6
			s51.8,27.6,51.8,27.6l-23.8-3.2C1536.3,732.4,1500,712.9,1461.5,715.7z"/>
	</g>
	<g>
		<path class="st19" d="M1425.8,887.9c0,0-5.1,33.9,31.7,39.8c36.8,5.8,196.9-80.6,196.9-80.6s35.1-4.7,51.4,21s23.5,26.6,23.5,26.6
			l-8.4-94.4c0,0-73.6-22.2-79.9-19.9c-6.4,2.3-127.9,49.1-127.9,49.1l-62.2,16.4l-21.9,8.2L1425.8,887.9z"/>
	</g>
	<path class="st20" d="M1767.4,740.3l-47.3,6.8l0.7,9.6c0,0-176.4-23-184.5-24.3c-8.2-1.3-44.2-18.7-74.8-16.7l13.3,36l-77,43.1
		c0,0,33.7,65.5,36.4,76.9c2.7,11.3,12,29.3,42.7,20.7c30.7-8.7,178-78.7,178-78.7s73.3,28.1,82,31c8.7,3,35.3,3,34.7-20.4
		C1770.8,801,1767.4,740.3,1767.4,740.3z M1494.1,805.1c-4.7-2.6-8-15.4-8-15.4c16-3.3,56-20,56-20l26.7,13.3
		C1568.8,783,1498.8,807.7,1494.1,805.1z"/>
	<g>
		<path class="st19" d="M1736.1,531.7c0,0-2.3,93.3-24.5,124.8c-22.2,31.6,0,98.9,0,98.9l8.5-8.4l65.3-9.3
			C1785.5,737.7,1773.5,623,1736.1,531.7z"/>
	</g>
	<g>
		<path class="st21" d="M1502.1,427c0,0,14.3,18,47,20.3c0,0-6.4,21-0.3,38.6c6.1,17.5,11.2,56.6,11.2,56.6s-41.8-19.7-57.9-85.5
			V427z"/>
	</g>
	<g>
		<path class="st22" d="M1568.8,783l86,30.7l-36.5,17.1c0,0-63.1-8.4-72.5-14.2c-9.5-5.8-14.7-20.9-14.7-20.9L1568.8,783z"/>
	</g>
	<g>
		<path class="st21" d="M1470.6,754.1l15.6,35.6l50.2-17.6l-29-23c0,0,12.2-4.4-5.2-13.5c-17.4-9.1-31.6-20.2-31.6-20.2l-9.1,0.3
			l13.3,36L1470.6,754.1z"/>
	</g>
	<g>
		<polygon class="st23" points="1720.1,747 1720.8,756.6 1769.3,775.1 1767.4,740.3 		"/>
	</g>
	<path class="st20" d="M1643.8,746.6c0,0,19-22.2,39.6-14.2c20.7,8,37.3,24.3,37.3,24.3L1643.8,746.6z"/>
	<g>
		<g>
			<path class="st11" d="M1629.5,693c-0.3,0-0.7-0.1-0.9-0.3c-0.3-0.3-0.5-0.7-0.5-1.1v-11.9c0-0.8,0.6-1.4,1.4-1.4s1.4,0.6,1.4,1.4
				v10.2l33.7-5.2c0.4-0.1,0.8,0,1.2,0.3c0.3,0.3,0.5,0.7,0.5,1.1v5.7l6.7-8.2c0.2-0.3,0.5-0.4,0.9-0.5l8.1-1.4v-35.3l-14.1,2.4
				c-0.8,0.1-1.5-0.4-1.6-1.2c-0.1-0.8,0.4-1.5,1.2-1.6l15.8-2.7c0.4-0.1,0.8,0,1.2,0.3c0.3,0.3,0.5,0.7,0.5,1.1v38.2
				c0,0.7-0.5,1.3-1.2,1.4l-8.8,1.5l-8.9,10.8c-0.4,0.5-1,0.6-1.6,0.4c-0.6-0.2-0.9-0.7-0.9-1.3v-8l-33.7,5.2
				C1629.6,692.9,1629.6,693,1629.5,693z"/>
		</g>
		<g>
			<g>
				<polygon class="st11" points="1651.3,704.2 1638.8,652 1634.5,668.9 1613.9,670.7 1613.9,670.7 1630.6,663.5 1638.7,630.1 
					1651.5,684.2 1659.1,659.2 1695.7,653.2 1695.7,653.2 1663.5,664.5 				"/>
			</g>
		</g>
	</g>
</g>
<path class="st24" d="M2024.1,706.4c0,0-22.9-40.8-51.4-19.6s-22.3,43.9-22.3,43.9s-36.6,28.9-25,59.8c0,0,40.9-55.2,63.1-37.2
	c0,0,16.6,34-23.4,67.3c0,0,33.1-3.5,53-42.5c0,0,38.8,9.1,43.5-33.6C2065,712.6,2024.1,706.4,2024.1,706.4z"/>
<path class="st15" d="M310.4,940.7c0,0-46.8,1.7-40.9,36.8s28.9,39.9,28.9,39.9s9,45.8,41.8,49.6c0,0-30.5-61.5-4.3-73.1
	c0,0,37.9,0.7,49.2,51.5c0,0,12-31-13.7-66.5c0,0,25.8-30.4-10.1-54C334.5,907,310.4,940.7,310.4,940.7z"/>
</svg>
